<svg xmlns="http://www.w3.org/2000/svg" xmlns:xlink="http://www.w3.org/1999/xlink" width="456" zoomAndPan="magnify" viewBox="0 0 342 341.999987" height="456" preserveAspectRatio="xMidYMid meet" version="1.0"><defs><g/></defs><rect x="-34.2" width="410.4" fill="#ffffff" y="-34.199999" height="410.399984" fill-opacity="1"/><rect x="-34.2" width="410.4" fill="#00bf63" y="-34.199999" height="410.399984" fill-opacity="1"/><g fill="#ffffff" fill-opacity="1"><g transform="translate(48.404775, 252.022569)"><g><path d="M 134.9375 -165.59375 L 164.21875 -64.15625 C 166.425781 -56.375 168.382812 -48.921875 170.09375 -41.796875 C 171.8125 -34.671875 173.207031 -28.398438 174.28125 -22.984375 C 175.425781 -28.628906 176.738281 -34.554688 178.21875 -40.765625 C 179.707031 -46.984375 181.519531 -53.863281 183.65625 -61.40625 L 204.234375 -133.6875 C 204.460938 -134.601562 204.726562 -135.628906 205.03125 -136.765625 C 205.34375 -137.910156 205.613281 -139.054688 205.84375 -140.203125 C 206.070312 -141.347656 206.28125 -142.414062 206.46875 -143.40625 C 206.65625 -144.394531 206.75 -145.234375 206.75 -145.921875 C 206.75 -149.960938 205.472656 -152.878906 202.921875 -154.671875 C 200.367188 -156.460938 196.5 -157.359375 191.3125 -157.359375 L 185.9375 -157.359375 L 185.9375 -167.1875 L 243.125 -167.1875 L 243.125 -157.359375 L 238.65625 -157.359375 C 236.375 -157.359375 234.375 -157.128906 232.65625 -156.671875 C 230.945312 -156.210938 229.40625 -155.332031 228.03125 -154.03125 C 226.65625 -152.738281 225.394531 -150.910156 224.25 -148.546875 C 223.101562 -146.179688 221.960938 -143.054688 220.828125 -139.171875 L 181.25 0 L 160.21875 0 L 122.015625 -131.171875 L 86.21875 0 L 64.609375 0 L 21.734375 -145 C 20.960938 -147.445312 20.097656 -149.46875 19.140625 -151.0625 C 18.191406 -152.664062 17.070312 -153.925781 15.78125 -154.84375 C 14.488281 -155.757812 12.960938 -156.40625 11.203125 -156.78125 C 9.453125 -157.164062 7.429688 -157.359375 5.140625 -157.359375 L 2.0625 -157.359375 L 2.0625 -167.1875 L 66.5625 -167.1875 L 66.5625 -157.359375 L 61.1875 -157.359375 C 56.457031 -157.359375 52.925781 -156.460938 50.59375 -154.671875 C 48.269531 -152.878906 47.109375 -150.035156 47.109375 -146.140625 C 47.109375 -144.847656 47.300781 -143.515625 47.6875 -142.140625 C 48.070312 -140.773438 48.488281 -139.210938 48.9375 -137.453125 L 70.4375 -62.546875 C 72.425781 -55.460938 74.296875 -48.507812 76.046875 -41.6875 C 77.796875 -34.863281 79.320312 -28.628906 80.625 -22.984375 C 81.769531 -29.085938 83.125 -35.738281 84.6875 -42.9375 C 86.25 -50.144531 88.054688 -57.519531 90.109375 -65.0625 L 118.015625 -165.59375 Z M 134.9375 -165.59375 "/></g></g></g></svg>