<svg xmlns="http://www.w3.org/2000/svg" xmlns:xlink="http://www.w3.org/1999/xlink" width="600" zoomAndPan="magnify" viewBox="0 0 450 449.999984" height="600" preserveAspectRatio="xMidYMid meet" version="1.0"><defs><clipPath id="3ccf937284"><path d="M 28.183594 28.183594 L 421.933594 28.183594 L 421.933594 421.933594 L 28.183594 421.933594 Z M 28.183594 28.183594 " clip-rule="nonzero"/></clipPath><clipPath id="98cfdd377b"><path d="M 78.183594 78.183594 L 372 78.183594 L 372 372 L 78.183594 372 Z M 78.183594 78.183594 " clip-rule="nonzero"/></clipPath></defs><g clip-path="url(#3ccf937284)"><path fill="#121212" d="M 264.761719 80.335938 C 270.808594 81.992188 276.691406 84.015625 282.386719 86.378906 C 288.175781 88.777344 293.773438 91.523438 299.152344 94.589844 L 335.753906 64.3125 L 339.183594 68.453125 L 335.75 64.304688 C 337.933594 62.5 341.121094 62.707031 343.054688 64.714844 L 385.347656 107.007812 C 387.390625 109.050781 387.449219 112.328125 385.523438 114.4375 L 355.414062 150.835938 C 358.476562 156.210938 361.222656 161.808594 363.621094 167.59375 C 365.984375 173.296875 368.011719 179.183594 369.667969 185.234375 L 416.9375 189.703125 L 416.429688 195.042969 L 416.9375 189.6875 C 419.726562 189.949219 421.816406 192.296875 421.8125 195.042969 L 421.8125 254.953125 C 421.8125 257.902344 419.4375 260.300781 416.496094 260.332031 L 369.660156 264.761719 C 368.003906 270.808594 365.980469 276.691406 363.617188 282.386719 C 361.21875 288.175781 358.472656 293.773438 355.40625 299.152344 L 385.683594 335.753906 L 381.542969 339.179688 L 385.691406 335.75 C 387.496094 337.933594 387.289062 341.121094 385.28125 343.050781 L 342.988281 385.347656 C 340.945312 387.390625 337.667969 387.445312 335.558594 385.519531 L 299.160156 355.414062 C 293.785156 358.476562 288.1875 361.222656 282.402344 363.621094 C 276.699219 365.984375 270.8125 368.007812 264.761719 369.667969 L 260.292969 416.9375 L 254.953125 416.429688 L 260.308594 416.9375 C 260.046875 419.726562 257.699219 421.816406 254.953125 421.8125 L 195.042969 421.8125 C 192.09375 421.8125 189.695312 419.4375 189.664062 416.496094 L 185.234375 369.660156 C 179.1875 368.003906 173.304688 365.980469 167.609375 363.617188 C 161.820312 361.21875 156.222656 358.472656 150.84375 355.40625 L 114.242188 385.683594 L 110.816406 381.542969 L 114.246094 385.691406 C 112.0625 387.496094 108.875 387.289062 106.945312 385.28125 L 64.648438 342.988281 C 62.605469 340.945312 62.550781 337.667969 64.476562 335.558594 L 94.582031 299.160156 C 91.519531 293.785156 88.773438 288.1875 86.375 282.402344 C 84.011719 276.699219 81.988281 270.8125 80.328125 264.761719 L 33.058594 260.289062 L 33.566406 254.953125 L 33.058594 260.308594 C 30.269531 260.046875 28.179688 257.699219 28.183594 254.953125 L 28.183594 195.042969 C 28.183594 192.09375 30.558594 189.695312 33.503906 189.664062 L 80.332031 185.234375 C 81.992188 179.183594 84.015625 173.296875 86.378906 167.601562 C 88.777344 161.8125 91.523438 156.214844 94.585938 150.84375 L 64.3125 114.242188 L 68.453125 110.8125 L 64.308594 114.246094 C 62.503906 112.0625 62.707031 108.875 64.714844 106.941406 L 107.011719 64.648438 L 107.007812 64.648438 C 109.050781 62.605469 112.328125 62.550781 114.4375 64.476562 L 150.84375 94.585938 C 156.222656 91.523438 161.816406 88.777344 167.605469 86.378906 C 173.300781 84.019531 179.1875 81.996094 185.234375 80.335938 L 189.707031 33.058594 L 195.042969 33.566406 L 189.6875 33.058594 C 189.949219 30.269531 192.296875 28.179688 195.042969 28.183594 L 254.953125 28.183594 C 257.902344 28.183594 260.300781 30.558594 260.332031 33.5 Z M 278.265625 96.300781 C 272 93.703125 265.519531 91.550781 258.859375 89.886719 C 256.527344 89.484375 254.652344 87.5625 254.421875 85.089844 L 259.777344 84.582031 L 254.4375 85.089844 L 250.074219 38.945312 L 199.921875 38.945312 L 195.601562 84.628906 C 195.582031 87.03125 193.945312 89.207031 191.507812 89.808594 L 190.21875 84.582031 L 191.5 89.796875 C 184.710938 91.472656 178.105469 93.65625 171.726562 96.300781 C 165.359375 98.941406 159.210938 102.050781 153.332031 105.589844 C 151.402344 106.890625 148.773438 106.832031 146.890625 105.273438 L 150.316406 101.128906 L 146.890625 105.269531 L 111.160156 75.714844 L 75.714844 111.160156 L 105.097656 146.679688 C 106.671875 148.398438 107 151.007812 105.734375 153.101562 L 105.726562 153.097656 C 102.132812 159.046875 98.972656 165.269531 96.300781 171.722656 C 93.703125 177.988281 91.546875 184.476562 89.882812 191.136719 C 89.480469 193.472656 87.558594 195.34375 85.085938 195.574219 L 84.582031 190.21875 L 85.085938 195.558594 L 38.945312 199.921875 L 38.945312 250.074219 L 84.621094 254.394531 C 87.019531 254.414062 89.199219 256.046875 89.800781 258.488281 L 84.574219 259.777344 L 89.789062 258.496094 C 91.464844 265.285156 93.648438 271.898438 96.296875 278.28125 C 98.9375 284.648438 102.046875 290.792969 105.585938 296.671875 C 106.886719 298.601562 106.828125 301.230469 105.269531 303.113281 L 101.125 299.683594 L 105.265625 303.109375 L 75.714844 338.835938 L 111.160156 374.28125 L 146.675781 344.90625 C 148.390625 343.328125 151.007812 342.996094 153.101562 344.261719 L 153.097656 344.265625 C 159.050781 347.859375 165.277344 351.019531 171.730469 353.695312 C 177.996094 356.292969 184.480469 358.445312 191.136719 360.109375 C 193.472656 360.511719 195.34375 362.433594 195.578125 364.90625 L 190.21875 365.414062 L 195.558594 364.90625 L 199.921875 411.050781 L 250.074219 411.050781 L 254.394531 365.375 C 254.414062 362.976562 256.046875 360.796875 258.488281 360.195312 L 259.777344 365.421875 L 258.496094 360.207031 C 265.285156 358.53125 271.898438 356.347656 278.28125 353.699219 C 284.648438 351.058594 290.792969 347.949219 296.671875 344.410156 C 298.601562 343.109375 301.230469 343.167969 303.113281 344.726562 L 299.683594 348.871094 L 303.113281 344.730469 L 338.835938 374.28125 L 374.28125 338.835938 L 344.90625 303.320312 C 343.328125 301.605469 342.996094 298.988281 344.261719 296.894531 L 344.265625 296.898438 C 347.859375 290.945312 351.023438 284.71875 353.695312 278.265625 C 356.292969 272 358.445312 265.519531 360.109375 258.859375 C 360.511719 256.523438 362.433594 254.652344 364.90625 254.421875 L 365.414062 259.777344 L 364.90625 254.4375 L 411.050781 250.074219 L 411.050781 199.921875 L 365.375 195.601562 C 362.976562 195.582031 360.796875 193.949219 360.195312 191.507812 L 365.421875 190.21875 L 360.207031 191.5 C 358.53125 184.710938 356.347656 178.097656 353.699219 171.714844 C 351.058594 165.347656 347.949219 159.203125 344.414062 153.324219 C 343.109375 151.394531 343.167969 148.765625 344.726562 146.882812 L 348.871094 150.3125 L 344.730469 146.886719 L 374.28125 111.160156 L 338.835938 75.714844 L 303.320312 105.089844 C 301.605469 106.667969 298.992188 107 296.894531 105.734375 L 296.898438 105.730469 C 290.945312 102.136719 284.71875 98.976562 278.265625 96.300781 Z M 278.265625 96.300781 " fill-opacity="1" fill-rule="nonzero"/></g><path fill="#121212" d="M 225 139.058594 C 248.730469 139.058594 270.214844 148.675781 285.765625 164.230469 C 301.320312 179.78125 310.9375 201.265625 310.9375 224.996094 C 310.9375 248.726562 301.320312 270.214844 285.765625 285.765625 C 270.214844 301.320312 248.730469 310.9375 225 310.9375 C 201.269531 310.9375 179.78125 301.320312 164.230469 285.765625 C 148.675781 270.214844 139.058594 248.726562 139.058594 224.996094 C 139.058594 201.265625 148.675781 179.78125 164.230469 164.230469 C 179.78125 148.675781 201.269531 139.058594 225 139.058594 Z M 278.15625 171.839844 C 264.554688 158.234375 245.757812 149.820312 225 149.820312 C 204.238281 149.820312 185.441406 158.234375 171.839844 171.839844 C 158.238281 185.441406 149.820312 204.238281 149.820312 224.996094 C 149.820312 245.757812 158.238281 264.554688 171.839844 278.15625 C 185.441406 291.757812 204.238281 300.175781 225 300.175781 C 245.757812 300.175781 264.554688 291.757812 278.15625 278.15625 C 291.761719 264.554688 300.175781 245.757812 300.175781 224.996094 C 300.175781 204.238281 291.761719 185.441406 278.15625 171.839844 Z M 278.15625 171.839844 " fill-opacity="1" fill-rule="nonzero"/><g clip-path="url(#98cfdd377b)"><path fill="#ffffff" d="M 254.65625 117.085938 C 259.164062 118.320312 263.554688 119.832031 267.804688 121.59375 C 272.121094 123.382812 276.296875 125.429688 280.308594 127.71875 L 307.613281 105.132812 L 310.167969 108.222656 L 307.609375 105.128906 C 309.238281 103.78125 311.613281 103.9375 313.054688 105.433594 L 344.605469 136.980469 C 346.128906 138.503906 346.171875 140.949219 344.734375 142.523438 L 322.277344 169.675781 C 324.558594 173.683594 326.609375 177.859375 328.398438 182.175781 C 330.160156 186.425781 331.671875 190.820312 332.910156 195.332031 L 368.167969 198.667969 L 367.792969 202.652344 L 368.167969 198.65625 C 370.25 198.851562 371.808594 200.601562 371.804688 202.652344 L 371.804688 247.335938 C 371.804688 249.539062 370.035156 251.328125 367.839844 251.351562 L 332.902344 254.65625 C 331.667969 259.164062 330.15625 263.554688 328.394531 267.800781 C 326.605469 272.121094 324.558594 276.296875 322.273438 280.308594 L 344.855469 307.609375 L 341.765625 310.167969 L 344.859375 307.609375 C 346.207031 309.238281 346.050781 311.613281 344.554688 313.054688 L 313.007812 344.605469 C 311.484375 346.128906 309.039062 346.171875 307.464844 344.734375 L 280.3125 322.277344 C 276.304688 324.558594 272.132812 326.609375 267.8125 328.398438 C 263.5625 330.160156 259.167969 331.671875 254.65625 332.910156 L 251.320312 368.167969 L 247.339844 367.789062 L 251.332031 368.167969 C 251.136719 370.25 249.386719 371.808594 247.339844 371.804688 L 202.652344 371.804688 C 200.449219 371.804688 198.660156 370.035156 198.636719 367.839844 L 195.332031 332.902344 C 190.824219 331.667969 186.433594 330.15625 182.1875 328.394531 C 177.867188 326.605469 173.691406 324.554688 169.679688 322.269531 L 142.378906 344.855469 L 139.820312 341.765625 L 142.378906 344.859375 C 140.75 346.207031 138.375 346.050781 136.933594 344.554688 L 105.382812 313.007812 C 103.859375 311.484375 103.816406 309.039062 105.253906 307.464844 L 127.710938 280.3125 C 125.429688 276.304688 123.378906 272.128906 121.589844 267.8125 C 119.828125 263.5625 118.316406 259.167969 117.078125 254.65625 L 81.820312 251.320312 L 82.199219 247.335938 L 81.820312 251.332031 C 79.738281 251.136719 78.179688 249.386719 78.183594 247.335938 L 78.183594 202.648438 C 78.183594 200.449219 79.957031 198.660156 82.152344 198.636719 L 117.082031 195.332031 C 118.320312 190.820312 119.832031 186.429688 121.59375 182.179688 C 123.382812 177.863281 125.429688 173.6875 127.714844 169.679688 L 105.132812 142.378906 L 108.222656 139.820312 L 105.128906 142.378906 C 103.78125 140.75 103.9375 138.375 105.433594 136.933594 L 136.984375 105.382812 L 136.980469 105.382812 C 138.503906 103.859375 140.949219 103.816406 142.523438 105.253906 L 169.679688 127.714844 C 173.691406 125.429688 177.863281 123.382812 182.183594 121.59375 C 186.433594 119.832031 190.820312 118.324219 195.332031 117.085938 L 198.667969 81.820312 L 202.652344 82.195312 L 198.65625 81.820312 C 198.851562 79.738281 200.601562 78.179688 202.652344 78.183594 L 247.339844 78.183594 C 249.539062 78.183594 251.328125 79.953125 251.351562 82.148438 Z M 264.730469 128.992188 C 260.054688 127.054688 255.21875 125.449219 250.25 124.210938 C 248.511719 123.910156 247.117188 122.476562 246.941406 120.632812 L 250.9375 120.253906 L 246.957031 120.628906 L 243.699219 86.210938 L 206.289062 86.210938 L 203.066406 120.289062 C 203.050781 122.078125 201.832031 123.703125 200.011719 124.152344 L 199.050781 120.253906 L 200.007812 124.144531 C 194.941406 125.394531 190.015625 127.019531 185.257812 128.996094 C 180.507812 130.964844 175.921875 133.285156 171.535156 135.921875 C 170.097656 136.894531 168.136719 136.851562 166.730469 135.6875 L 169.289062 132.59375 L 166.730469 135.683594 L 140.078125 113.640625 L 113.640625 140.078125 L 135.554688 166.574219 C 136.730469 167.855469 136.972656 169.800781 136.03125 171.363281 L 136.027344 171.359375 C 133.34375 175.796875 130.988281 180.441406 128.992188 185.253906 C 127.054688 189.929688 125.449219 194.765625 124.207031 199.738281 C 123.90625 201.476562 122.472656 202.875 120.628906 203.046875 L 120.253906 199.050781 L 120.628906 203.035156 L 86.210938 206.289062 L 86.210938 243.699219 L 120.28125 246.921875 C 122.070312 246.9375 123.695312 248.15625 124.144531 249.972656 L 120.246094 250.9375 L 124.136719 249.980469 C 125.386719 255.046875 127.015625 259.976562 128.992188 264.738281 C 130.960938 269.488281 133.28125 274.074219 135.917969 278.457031 C 136.890625 279.894531 136.847656 281.859375 135.683594 283.265625 L 132.59375 280.707031 L 135.679688 283.261719 L 113.640625 309.910156 L 140.078125 336.347656 L 166.570312 314.4375 C 167.851562 313.261719 169.800781 313.011719 171.363281 313.957031 L 171.363281 313.960938 C 175.800781 316.640625 180.445312 319 185.257812 320.996094 C 189.933594 322.933594 194.769531 324.539062 199.738281 325.777344 C 201.476562 326.078125 202.875 327.511719 203.046875 329.355469 L 199.050781 329.734375 L 203.035156 329.359375 L 206.289062 363.777344 L 243.699219 363.777344 L 246.921875 329.707031 C 246.9375 327.917969 248.15625 326.292969 249.972656 325.84375 L 250.9375 329.742188 L 249.980469 325.851562 C 255.046875 324.601562 259.976562 322.972656 264.738281 320.996094 C 269.488281 319.027344 274.074219 316.707031 278.457031 314.070312 C 279.898438 313.097656 281.859375 313.140625 283.265625 314.304688 L 280.707031 317.398438 L 283.261719 314.308594 L 309.910156 336.347656 L 336.347656 309.910156 L 314.4375 283.417969 C 313.261719 282.140625 313.011719 280.1875 313.957031 278.625 L 313.960938 278.628906 C 316.640625 274.1875 319 269.542969 320.996094 264.730469 C 322.933594 260.054688 324.539062 255.21875 325.777344 250.25 C 326.078125 248.511719 327.515625 247.113281 329.355469 246.941406 L 329.734375 250.9375 L 329.359375 246.953125 L 363.777344 243.699219 L 363.777344 206.289062 L 329.707031 203.066406 C 327.917969 203.050781 326.292969 201.832031 325.84375 200.015625 L 329.742188 199.050781 L 325.851562 200.007812 C 324.601562 194.941406 322.972656 190.011719 320.996094 185.25 C 319.027344 180.5 316.707031 175.914062 314.070312 171.53125 C 313.097656 170.09375 313.140625 168.128906 314.304688 166.722656 L 317.398438 169.28125 L 314.308594 166.726562 L 336.347656 140.078125 L 309.910156 113.640625 L 283.417969 135.550781 C 282.140625 136.726562 280.1875 136.976562 278.625 136.03125 L 278.628906 136.027344 C 274.1875 133.347656 269.542969 130.988281 264.730469 128.992188 Z M 264.730469 128.992188 " fill-opacity="1" fill-rule="nonzero"/></g><path fill="#ffffff" d="M 224.996094 160.886719 C 242.695312 160.886719 258.722656 168.0625 270.324219 179.664062 C 281.925781 191.265625 289.101562 207.292969 289.101562 224.992188 C 289.101562 242.695312 281.925781 258.722656 270.324219 270.324219 C 258.722656 281.925781 242.695312 289.101562 224.996094 289.101562 C 207.292969 289.101562 191.265625 281.925781 179.664062 270.324219 C 168.0625 258.722656 160.886719 242.695312 160.886719 224.992188 C 160.886719 207.292969 168.0625 191.265625 179.664062 179.664062 C 191.265625 168.0625 207.292969 160.886719 224.996094 160.886719 Z M 264.648438 185.339844 C 254.5 175.195312 240.480469 168.917969 224.996094 168.917969 C 209.507812 168.917969 195.488281 175.195312 185.339844 185.339844 C 175.195312 195.488281 168.917969 209.507812 168.917969 224.992188 C 168.917969 240.480469 175.195312 254.5 185.339844 264.648438 C 195.488281 274.792969 209.507812 281.070312 224.996094 281.070312 C 240.480469 281.070312 254.5 274.792969 264.648438 264.648438 C 274.792969 254.5 281.070312 240.480469 281.070312 224.992188 C 281.070312 209.507812 274.792969 195.488281 264.648438 185.339844 Z M 264.648438 185.339844 " fill-opacity="1" fill-rule="nonzero"/></svg>