<svg xmlns="http://www.w3.org/2000/svg" xmlns:xlink="http://www.w3.org/1999/xlink" width="600" zoomAndPan="magnify" viewBox="0 0 450 449.999984" height="600" preserveAspectRatio="xMidYMid meet" version="1.0"><defs><clipPath id="56a3b54469"><path d="M 90 31.855469 L 359.863281 31.855469 L 359.863281 436.855469 L 90 436.855469 Z M 90 31.855469 " clip-rule="nonzero"/></clipPath></defs><g clip-path="url(#56a3b54469)"><path fill="#000000" d="M 169.136719 267.730469 L 169.136719 266.097656 C 169.136719 236.476562 185.148438 216.632812 214.734375 199.777344 C 251.667969 178.03125 261.167969 166.34375 261.167969 142.964844 C 261.167969 120.953125 243.511719 105.457031 219.09375 105.457031 C 197.375 105.457031 182.707031 115.511719 174.304688 135.355469 C 166.425781 153.023438 150.945312 162 131.9375 162 C 106.414062 162 90.132812 146.230469 90.398438 121.765625 C 90.398438 110.078125 93.117188 99.46875 98.820312 89.144531 C 117 54.898438 162.355469 31.511719 223.96875 31.511719 C 306.234375 31.511719 360.253906 74.464844 360.253906 140.511719 C 360.253906 180.476562 341.542969 208.199219 301.625 231.300781 C 266.234375 251.734375 258.125 261.585938 252.746094 279.347656 C 252.46875 280.25 252.199219 281.171875 251.941406 282.125 C 245.695312 301.15625 232.945312 311.210938 212.046875 311.210938 C 185.960938 311.230469 169.136719 293.5625 169.136719 267.730469 Z M 162.078125 387.339844 C 162.078125 360.164062 184.882812 338.683594 213.382812 338.683594 C 241.613281 338.683594 264.6875 360.164062 264.6875 387.339844 C 264.6875 414.796875 241.613281 436.273438 213.382812 436.273438 C 184.882812 436.273438 162.078125 414.796875 162.078125 387.339844 Z M 162.078125 387.339844 " fill-opacity="1" fill-rule="nonzero"/></g></svg>