<svg xmlns="http://www.w3.org/2000/svg" xmlns:xlink="http://www.w3.org/1999/xlink" width="600" zoomAndPan="magnify" viewBox="0 0 450 449.999984" height="600" preserveAspectRatio="xMidYMid meet" version="1.0"><defs><clipPath id="2ce3448235"><path d="M 90 31.855469 L 359.863281 31.855469 L 359.863281 436.855469 L 90 436.855469 Z M 90 31.855469 " clip-rule="nonzero"/></clipPath></defs><g clip-path="url(#2ce3448235)"><path fill="#ffffff" d="M 169.214844 267.675781 L 169.214844 266.042969 C 169.214844 236.429688 185.246094 216.589844 214.859375 199.738281 C 251.828125 178 261.335938 166.3125 261.335938 142.941406 C 261.335938 120.933594 243.664062 105.4375 219.222656 105.4375 C 197.484375 105.4375 182.800781 115.492188 174.386719 135.332031 C 166.503906 152.992188 151.007812 161.96875 131.980469 161.96875 C 106.429688 161.96875 90.132812 146.207031 90.402344 121.746094 C 90.402344 110.058594 93.121094 99.453125 98.832031 89.132812 C 117.027344 54.894531 162.425781 31.511719 224.101562 31.511719 C 306.449219 31.511719 360.527344 74.457031 360.527344 140.488281 C 360.527344 180.441406 341.792969 208.160156 301.835938 231.253906 C 266.410156 251.683594 258.292969 261.535156 252.90625 279.289062 C 252.628906 280.191406 252.363281 281.117188 252.105469 282.066406 C 245.851562 301.09375 233.085938 311.148438 212.167969 311.148438 C 186.054688 311.164062 169.214844 293.503906 169.214844 267.675781 Z M 162.148438 387.257812 C 162.148438 360.085938 184.976562 338.613281 213.503906 338.613281 C 241.765625 338.613281 264.859375 360.085938 264.859375 387.257812 C 264.859375 414.707031 241.765625 436.179688 213.503906 436.179688 C 184.976562 436.179688 162.148438 414.707031 162.148438 387.257812 Z M 162.148438 387.257812 " fill-opacity="1" fill-rule="nonzero"/></g></svg>