<svg xmlns="http://www.w3.org/2000/svg" xmlns:xlink="http://www.w3.org/1999/xlink" width="600" zoomAndPan="magnify" viewBox="0 0 450 449.999984" height="600" preserveAspectRatio="xMidYMid meet" version="1.0"><defs><clipPath id="57df920753"><path d="M 37.140625 220 L 145 220 L 145 411 L 37.140625 411 Z M 37.140625 220 " clip-rule="nonzero"/></clipPath><clipPath id="4c220170bc"><path d="M 305 45 L 412.890625 45 L 412.890625 411 L 305 411 Z M 305 45 " clip-rule="nonzero"/></clipPath></defs><path fill="#000000" d="M 52.300781 233.753906 C 51.402344 233.753906 50.671875 234.484375 50.671875 235.382812 L 50.671875 396.433594 C 50.671875 397.332031 51.402344 398.0625 52.300781 398.0625 L 130.285156 398.0625 C 131.183594 398.0625 131.914062 397.332031 131.914062 396.433594 L 131.914062 235.378906 C 131.914062 234.480469 131.183594 233.75 130.285156 233.75 L 52.300781 233.75 Z M 52.300781 233.753906 " fill-opacity="1" fill-rule="nonzero"/><g clip-path="url(#57df920753)"><path fill="#000000" d="M 52.300781 220.855469 C 44.292969 220.855469 37.777344 227.371094 37.777344 235.378906 L 37.777344 396.433594 C 37.777344 404.441406 44.292969 410.957031 52.300781 410.957031 L 130.285156 410.957031 C 138.292969 410.957031 144.804688 404.441406 144.804688 396.433594 L 144.804688 235.378906 C 144.804688 227.371094 138.292969 220.855469 130.285156 220.855469 Z M 131.910156 235.378906 L 131.910156 396.433594 C 131.910156 397.328125 131.179688 398.058594 130.28125 398.058594 L 52.296875 398.058594 C 51.398438 398.058594 50.667969 397.328125 50.667969 396.433594 L 50.667969 235.378906 C 50.667969 234.480469 51.398438 233.75 52.296875 233.75 L 130.28125 233.75 C 131.179688 233.753906 131.910156 234.480469 131.910156 235.378906 Z M 131.910156 235.378906 " fill-opacity="1" fill-rule="nonzero"/></g><path fill="#000000" d="M 263.960938 140.277344 L 185.980469 140.277344 C 185.082031 140.277344 184.351562 141.007812 184.351562 141.90625 L 184.351562 396.433594 C 184.351562 397.332031 185.082031 398.0625 185.980469 398.0625 L 263.960938 398.0625 C 264.863281 398.0625 265.59375 397.332031 265.59375 396.433594 L 265.59375 141.90625 C 265.59375 141.007812 264.863281 140.277344 263.960938 140.277344 Z M 263.960938 140.277344 " fill-opacity="1" fill-rule="nonzero"/><path fill="#000000" d="M 263.960938 127.378906 L 185.980469 127.378906 C 177.972656 127.378906 171.457031 133.894531 171.457031 141.90625 L 171.457031 396.433594 C 171.457031 404.441406 177.972656 410.957031 185.980469 410.957031 L 263.964844 410.957031 C 271.972656 410.957031 278.488281 404.441406 278.488281 396.433594 L 278.488281 141.90625 C 278.484375 133.894531 271.972656 127.378906 263.960938 127.378906 Z M 265.59375 396.433594 C 265.59375 397.328125 264.863281 398.058594 263.960938 398.058594 L 185.980469 398.058594 C 185.082031 398.058594 184.351562 397.328125 184.351562 396.433594 L 184.351562 141.90625 C 184.351562 141.007812 185.082031 140.273438 185.980469 140.273438 L 263.964844 140.273438 C 264.863281 140.273438 265.59375 141.007812 265.59375 141.90625 Z M 265.59375 396.433594 " fill-opacity="1" fill-rule="nonzero"/><path fill="#000000" d="M 319.65625 398.058594 L 397.644531 398.058594 C 398.542969 398.058594 399.273438 397.328125 399.273438 396.429688 L 399.273438 59.523438 C 399.273438 58.628906 398.542969 57.898438 397.644531 57.898438 L 319.65625 57.898438 C 318.761719 57.898438 318.03125 58.628906 318.03125 59.523438 L 318.03125 396.433594 C 318.03125 397.328125 318.761719 398.058594 319.65625 398.058594 Z M 319.65625 398.058594 " fill-opacity="1" fill-rule="nonzero"/><g clip-path="url(#4c220170bc)"><path fill="#000000" d="M 319.65625 410.957031 L 397.644531 410.957031 C 405.652344 410.957031 412.164062 404.441406 412.164062 396.433594 L 412.164062 59.523438 C 412.164062 51.515625 405.652344 45 397.644531 45 L 319.65625 45 C 311.652344 45 305.136719 51.515625 305.136719 59.523438 L 305.136719 396.433594 C 305.140625 404.441406 311.652344 410.957031 319.65625 410.957031 Z M 318.03125 59.523438 C 318.03125 58.628906 318.761719 57.898438 319.660156 57.898438 L 397.644531 57.898438 C 398.542969 57.898438 399.273438 58.628906 399.273438 59.523438 L 399.273438 396.433594 C 399.273438 397.328125 398.542969 398.058594 397.644531 398.058594 L 319.660156 398.058594 C 318.761719 398.058594 318.03125 397.328125 318.03125 396.433594 Z M 318.03125 59.523438 " fill-opacity="1" fill-rule="nonzero"/></g></svg>