<svg xmlns="http://www.w3.org/2000/svg" xmlns:xlink="http://www.w3.org/1999/xlink" width="600" zoomAndPan="magnify" viewBox="0 0 450 449.999984" height="600" preserveAspectRatio="xMidYMid meet" version="1.0"><defs><clipPath id="ae4c5f7e4f"><path d="M 37.140625 220 L 145 220 L 145 411 L 37.140625 411 Z M 37.140625 220 " clip-rule="nonzero"/></clipPath><clipPath id="a37d772fa2"><path d="M 305 45 L 412.890625 45 L 412.890625 411 L 305 411 Z M 305 45 " clip-rule="nonzero"/></clipPath></defs><path fill="#ffffff" d="M 52.296875 233.675781 C 51.398438 233.675781 50.667969 234.40625 50.667969 235.304688 L 50.667969 396.289062 C 50.667969 397.183594 51.398438 397.914062 52.296875 397.914062 L 130.273438 397.914062 C 131.175781 397.914062 131.90625 397.183594 131.90625 396.289062 L 131.90625 235.300781 C 131.90625 234.402344 131.175781 233.671875 130.273438 233.671875 L 52.296875 233.671875 Z M 52.296875 233.675781 " fill-opacity="1" fill-rule="nonzero"/><g clip-path="url(#ae4c5f7e4f)"><path fill="#ffffff" d="M 52.296875 220.78125 C 44.292969 220.78125 37.777344 227.292969 37.777344 235.300781 L 37.777344 396.285156 C 37.777344 404.289062 44.292969 410.804688 52.296875 410.804688 L 130.273438 410.804688 C 138.28125 410.804688 144.796875 404.289062 144.796875 396.285156 L 144.796875 235.300781 C 144.796875 227.292969 138.28125 220.78125 130.273438 220.78125 Z M 131.902344 235.300781 L 131.902344 396.285156 C 131.902344 397.183594 131.171875 397.914062 130.273438 397.914062 L 52.296875 397.914062 C 51.398438 397.914062 50.667969 397.183594 50.667969 396.285156 L 50.667969 235.300781 C 50.667969 234.402344 51.398438 233.671875 52.296875 233.671875 L 130.273438 233.671875 C 131.171875 233.675781 131.902344 234.402344 131.902344 235.300781 Z M 131.902344 235.300781 " fill-opacity="1" fill-rule="nonzero"/></g><path fill="#ffffff" d="M 263.941406 140.238281 L 185.964844 140.238281 C 185.066406 140.238281 184.335938 140.96875 184.335938 141.867188 L 184.335938 396.289062 C 184.335938 397.183594 185.066406 397.914062 185.964844 397.914062 L 263.941406 397.914062 C 264.839844 397.914062 265.570312 397.183594 265.570312 396.289062 L 265.570312 141.863281 C 265.570312 140.964844 264.839844 140.238281 263.941406 140.238281 Z M 263.941406 140.238281 " fill-opacity="1" fill-rule="nonzero"/><path fill="#ffffff" d="M 263.941406 127.34375 L 185.96875 127.34375 C 177.960938 127.34375 171.445312 133.859375 171.445312 141.863281 L 171.445312 396.285156 C 171.445312 404.289062 177.960938 410.804688 185.96875 410.804688 L 263.945312 410.804688 C 271.949219 410.804688 278.464844 404.289062 278.464844 396.285156 L 278.464844 141.863281 C 278.460938 133.859375 271.949219 127.34375 263.941406 127.34375 Z M 265.570312 396.285156 C 265.570312 397.183594 264.839844 397.914062 263.941406 397.914062 L 185.96875 397.914062 C 185.070312 397.914062 184.339844 397.183594 184.339844 396.285156 L 184.339844 141.863281 C 184.339844 140.964844 185.070312 140.234375 185.96875 140.234375 L 263.945312 140.234375 C 264.84375 140.234375 265.574219 140.964844 265.574219 141.863281 L 265.574219 396.285156 Z M 265.570312 396.285156 " fill-opacity="1" fill-rule="nonzero"/><path fill="#ffffff" d="M 319.632812 397.910156 L 397.609375 397.910156 C 398.507812 397.910156 399.238281 397.179688 399.238281 396.285156 L 399.238281 59.519531 C 399.238281 58.621094 398.507812 57.890625 397.609375 57.890625 L 319.632812 57.890625 C 318.734375 57.890625 318.003906 58.621094 318.003906 59.519531 L 318.003906 396.285156 C 318.007812 397.183594 318.738281 397.910156 319.632812 397.910156 Z M 319.632812 397.910156 " fill-opacity="1" fill-rule="nonzero"/><g clip-path="url(#a37d772fa2)"><path fill="#ffffff" d="M 319.632812 410.804688 L 397.609375 410.804688 C 405.617188 410.804688 412.128906 404.289062 412.128906 396.285156 L 412.128906 59.519531 C 412.128906 51.515625 405.617188 45 397.609375 45 L 319.632812 45 C 311.625 45 305.113281 51.515625 305.113281 59.519531 L 305.113281 396.285156 C 305.113281 404.289062 311.625 410.804688 319.632812 410.804688 Z M 318.007812 59.519531 C 318.007812 58.621094 318.738281 57.890625 319.632812 57.890625 L 397.613281 57.890625 C 398.511719 57.890625 399.242188 58.621094 399.242188 59.519531 L 399.242188 396.285156 C 399.242188 397.183594 398.511719 397.914062 397.613281 397.914062 L 319.632812 397.914062 C 318.738281 397.914062 318.007812 397.183594 318.007812 396.285156 Z M 318.007812 59.519531 " fill-opacity="1" fill-rule="nonzero"/></g></svg>