<svg xmlns="http://www.w3.org/2000/svg" xmlns:xlink="http://www.w3.org/1999/xlink" width="800" zoomAndPan="magnify" viewBox="0 0 600 159.750002" height="213" preserveAspectRatio="xMidYMid meet" version="1.0"><defs><g/><clipPath id="82cfc1497c"><path d="M 0.9375 34.453125 L 91.53125 34.453125 L 91.53125 125.046875 L 0.9375 125.046875 Z M 0.9375 34.453125 " clip-rule="nonzero"/></clipPath><clipPath id="5e0dcd7ca1"><path d="M 102.441406 34.453125 L 193.039062 34.453125 L 193.039062 125.046875 L 102.441406 125.046875 Z M 102.441406 34.453125 " clip-rule="nonzero"/></clipPath><clipPath id="8475494c40"><path d="M 203.949219 34.453125 L 294.542969 34.453125 L 294.542969 125.046875 L 203.949219 125.046875 Z M 203.949219 34.453125 " clip-rule="nonzero"/></clipPath><clipPath id="33a79235bb"><path d="M 305.457031 34.453125 L 396.050781 34.453125 L 396.050781 125.046875 L 305.457031 125.046875 Z M 305.457031 34.453125 " clip-rule="nonzero"/></clipPath><clipPath id="9feb287b27"><path d="M 406.960938 34.453125 L 497.558594 34.453125 L 497.558594 125.046875 L 406.960938 125.046875 Z M 406.960938 34.453125 " clip-rule="nonzero"/></clipPath><clipPath id="78da15e662"><path d="M 508.46875 34.453125 L 599.0625 34.453125 L 599.0625 125.046875 L 508.46875 125.046875 Z M 508.46875 34.453125 " clip-rule="nonzero"/></clipPath></defs><g clip-path="url(#82cfc1497c)"><path fill="#00bf63" d="M 0.9375 34.453125 L 91.53125 34.453125 L 91.53125 125.046875 L 0.9375 125.046875 Z M 0.9375 34.453125 " fill-opacity="1" fill-rule="nonzero"/></g><g fill="#ffffff" fill-opacity="1"><g transform="translate(29.497536, 89.865837)"><g><path d="M 18.40625 -22.59375 L 22.40625 -8.75 C 22.707031 -7.6875 22.972656 -6.671875 23.203125 -5.703125 C 23.441406 -4.734375 23.632812 -3.878906 23.78125 -3.140625 C 23.9375 -3.910156 24.113281 -4.71875 24.3125 -5.5625 C 24.519531 -6.40625 24.769531 -7.34375 25.0625 -8.375 L 27.859375 -18.234375 C 27.890625 -18.359375 27.925781 -18.5 27.96875 -18.65625 C 28.007812 -18.8125 28.046875 -18.96875 28.078125 -19.125 C 28.109375 -19.28125 28.132812 -19.425781 28.15625 -19.5625 C 28.1875 -19.695312 28.203125 -19.8125 28.203125 -19.90625 C 28.203125 -20.457031 28.023438 -20.851562 27.671875 -21.09375 C 27.328125 -21.34375 26.804688 -21.46875 26.109375 -21.46875 L 25.375 -21.46875 L 25.375 -22.8125 L 33.171875 -22.8125 L 33.171875 -21.46875 L 32.5625 -21.46875 C 32.25 -21.46875 31.972656 -21.4375 31.734375 -21.375 C 31.503906 -21.3125 31.296875 -21.191406 31.109375 -21.015625 C 30.921875 -20.835938 30.75 -20.585938 30.59375 -20.265625 C 30.4375 -19.941406 30.28125 -19.515625 30.125 -18.984375 L 24.734375 0 L 21.859375 0 L 16.640625 -17.890625 L 11.765625 0 L 8.8125 0 L 2.96875 -19.78125 C 2.863281 -20.113281 2.742188 -20.390625 2.609375 -20.609375 C 2.484375 -20.828125 2.332031 -21 2.15625 -21.125 C 1.976562 -21.25 1.769531 -21.335938 1.53125 -21.390625 C 1.289062 -21.441406 1.015625 -21.46875 0.703125 -21.46875 L 0.28125 -21.46875 L 0.28125 -22.8125 L 9.078125 -22.8125 L 9.078125 -21.46875 L 8.34375 -21.46875 C 7.695312 -21.46875 7.210938 -21.34375 6.890625 -21.09375 C 6.578125 -20.851562 6.421875 -20.46875 6.421875 -19.9375 C 6.421875 -19.757812 6.445312 -19.578125 6.5 -19.390625 C 6.550781 -19.203125 6.609375 -18.988281 6.671875 -18.75 L 9.609375 -8.53125 C 9.878906 -7.5625 10.132812 -6.613281 10.375 -5.6875 C 10.613281 -4.757812 10.820312 -3.910156 11 -3.140625 C 11.15625 -3.972656 11.335938 -4.878906 11.546875 -5.859375 C 11.765625 -6.835938 12.015625 -7.84375 12.296875 -8.875 L 16.09375 -22.59375 Z M 18.40625 -22.59375 "/></g></g></g><g clip-path="url(#5e0dcd7ca1)"><path fill="#ffc425" d="M 102.441406 34.453125 L 193.039062 34.453125 L 193.039062 125.046875 L 102.441406 125.046875 Z M 102.441406 34.453125 " fill-opacity="1" fill-rule="nonzero"/></g><g fill="#ffffff" fill-opacity="1"><g transform="translate(135.87115, 89.865837)"><g><path d="M 21.890625 -11.4375 C 21.890625 -9.675781 21.671875 -8.070312 21.234375 -6.625 C 20.796875 -5.1875 20.148438 -3.953125 19.296875 -2.921875 C 18.441406 -1.890625 17.390625 -1.09375 16.140625 -0.53125 C 14.898438 0.03125 13.472656 0.3125 11.859375 0.3125 C 10.160156 0.3125 8.679688 0.03125 7.421875 -0.53125 C 6.160156 -1.09375 5.113281 -1.890625 4.28125 -2.921875 C 3.457031 -3.953125 2.835938 -5.191406 2.421875 -6.640625 C 2.003906 -8.085938 1.796875 -9.695312 1.796875 -11.46875 C 1.796875 -13.238281 2.003906 -14.84375 2.421875 -16.28125 C 2.835938 -17.71875 3.457031 -18.945312 4.28125 -19.96875 C 5.113281 -20.988281 6.164062 -21.773438 7.4375 -22.328125 C 8.707031 -22.890625 10.191406 -23.171875 11.890625 -23.171875 C 13.503906 -23.171875 14.925781 -22.890625 16.15625 -22.328125 C 17.394531 -21.773438 18.441406 -20.984375 19.296875 -19.953125 C 20.148438 -18.929688 20.796875 -17.703125 21.234375 -16.265625 C 21.671875 -14.828125 21.890625 -13.21875 21.890625 -11.4375 Z M 5.328125 -11.4375 C 5.328125 -9.851562 5.441406 -8.4375 5.671875 -7.1875 C 5.910156 -5.945312 6.289062 -4.898438 6.8125 -4.046875 C 7.332031 -3.191406 8.003906 -2.535156 8.828125 -2.078125 C 9.660156 -1.628906 10.671875 -1.40625 11.859375 -1.40625 C 13.046875 -1.40625 14.050781 -1.628906 14.875 -2.078125 C 15.695312 -2.535156 16.363281 -3.191406 16.875 -4.046875 C 17.394531 -4.898438 17.769531 -5.945312 18 -7.1875 C 18.226562 -8.4375 18.34375 -9.851562 18.34375 -11.4375 C 18.34375 -13.019531 18.226562 -14.429688 18 -15.671875 C 17.769531 -16.910156 17.394531 -17.957031 16.875 -18.8125 C 16.363281 -19.664062 15.703125 -20.316406 14.890625 -20.765625 C 14.078125 -21.210938 13.078125 -21.4375 11.890625 -21.4375 C 10.703125 -21.4375 9.691406 -21.210938 8.859375 -20.765625 C 8.023438 -20.316406 7.34375 -19.664062 6.8125 -18.8125 C 6.289062 -17.957031 5.910156 -16.910156 5.671875 -15.671875 C 5.441406 -14.429688 5.328125 -13.019531 5.328125 -11.4375 Z M 5.328125 -11.4375 "/></g></g></g><g clip-path="url(#8475494c40)"><path fill="#00bf63" d="M 203.949219 34.453125 L 294.542969 34.453125 L 294.542969 125.046875 L 203.949219 125.046875 Z M 203.949219 34.453125 " fill-opacity="1" fill-rule="nonzero"/></g><g fill="#ffffff" fill-opacity="1"><g transform="translate(238.758032, 89.865837)"><g><path d="M 17.703125 -3.90625 C 18.242188 -3.050781 18.769531 -2.410156 19.28125 -1.984375 C 19.789062 -1.554688 20.382812 -1.34375 21.0625 -1.34375 L 21.15625 -1.34375 L 21.15625 0 L 20.703125 0 C 19.703125 0 18.878906 -0.0351562 18.234375 -0.109375 C 17.597656 -0.179688 17.054688 -0.320312 16.609375 -0.53125 C 16.171875 -0.738281 15.789062 -1.03125 15.46875 -1.40625 C 15.15625 -1.78125 14.816406 -2.269531 14.453125 -2.875 L 10.125 -10.0625 L 7.46875 -10.0625 L 7.46875 -3.484375 C 7.46875 -3.015625 7.535156 -2.632812 7.671875 -2.34375 C 7.816406 -2.0625 8.007812 -1.847656 8.25 -1.703125 C 8.488281 -1.554688 8.765625 -1.457031 9.078125 -1.40625 C 9.398438 -1.363281 9.738281 -1.34375 10.09375 -1.34375 L 10.515625 -1.34375 L 10.515625 0 L 1.21875 0 L 1.21875 -1.34375 L 1.625 -1.34375 C 1.976562 -1.34375 2.3125 -1.363281 2.625 -1.40625 C 2.945312 -1.457031 3.226562 -1.554688 3.46875 -1.703125 C 3.707031 -1.847656 3.894531 -2.0625 4.03125 -2.34375 C 4.175781 -2.632812 4.25 -3.015625 4.25 -3.484375 L 4.25 -19.296875 C 4.25 -19.765625 4.175781 -20.140625 4.03125 -20.421875 C 3.894531 -20.710938 3.707031 -20.9375 3.46875 -21.09375 C 3.226562 -21.25 2.945312 -21.347656 2.625 -21.390625 C 2.3125 -21.441406 1.976562 -21.46875 1.625 -21.46875 L 1.21875 -21.46875 L 1.21875 -22.8125 L 9.8125 -22.8125 C 12.582031 -22.8125 14.640625 -22.296875 15.984375 -21.265625 C 17.335938 -20.242188 18.015625 -18.703125 18.015625 -16.640625 C 18.015625 -15.796875 17.875 -15.050781 17.59375 -14.40625 C 17.320312 -13.769531 16.960938 -13.21875 16.515625 -12.75 C 16.078125 -12.28125 15.578125 -11.890625 15.015625 -11.578125 C 14.453125 -11.265625 13.890625 -11.015625 13.328125 -10.828125 Z M 7.46875 -11.5625 L 9.71875 -11.5625 C 10.65625 -11.5625 11.4375 -11.664062 12.0625 -11.875 C 12.6875 -12.082031 13.1875 -12.394531 13.5625 -12.8125 C 13.9375 -13.226562 14.203125 -13.75 14.359375 -14.375 C 14.523438 -15 14.609375 -15.722656 14.609375 -16.546875 C 14.609375 -17.398438 14.519531 -18.125 14.34375 -18.71875 C 14.164062 -19.320312 13.878906 -19.8125 13.484375 -20.1875 C 13.085938 -20.570312 12.570312 -20.847656 11.9375 -21.015625 C 11.3125 -21.191406 10.546875 -21.28125 9.640625 -21.28125 L 7.46875 -21.28125 Z M 7.46875 -11.5625 "/></g></g></g><g clip-path="url(#33a79235bb)"><path fill="#00bf63" d="M 305.457031 34.453125 L 396.050781 34.453125 L 396.050781 125.046875 L 305.457031 125.046875 Z M 305.457031 34.453125 " fill-opacity="1" fill-rule="nonzero"/></g><g fill="#ffffff" fill-opacity="1"><g transform="translate(339.129326, 89.865837)"><g><path d="M 21.40625 -11.4375 C 21.40625 -9.6875 21.1875 -8.109375 20.75 -6.703125 C 20.3125 -5.296875 19.660156 -4.09375 18.796875 -3.09375 C 17.929688 -2.101562 16.847656 -1.335938 15.546875 -0.796875 C 14.253906 -0.265625 12.738281 0 11 0 L 1.21875 0 L 1.21875 -1.34375 L 1.625 -1.34375 C 1.988281 -1.34375 2.328125 -1.367188 2.640625 -1.421875 C 2.960938 -1.472656 3.242188 -1.578125 3.484375 -1.734375 C 3.722656 -1.898438 3.910156 -2.132812 4.046875 -2.4375 C 4.179688 -2.738281 4.25 -3.140625 4.25 -3.640625 L 4.25 -19.296875 C 4.25 -19.765625 4.175781 -20.140625 4.03125 -20.421875 C 3.894531 -20.710938 3.707031 -20.9375 3.46875 -21.09375 C 3.226562 -21.25 2.945312 -21.347656 2.625 -21.390625 C 2.3125 -21.441406 1.976562 -21.46875 1.625 -21.46875 L 1.21875 -21.46875 L 1.21875 -22.8125 L 11 -22.8125 C 12.644531 -22.8125 14.109375 -22.554688 15.390625 -22.046875 C 16.679688 -21.546875 17.769531 -20.8125 18.65625 -19.84375 C 19.550781 -18.875 20.234375 -17.679688 20.703125 -16.265625 C 21.171875 -14.859375 21.40625 -13.25 21.40625 -11.4375 Z M 10.25 -1.625 C 11.519531 -1.625 12.628906 -1.835938 13.578125 -2.265625 C 14.535156 -2.703125 15.328125 -3.332031 15.953125 -4.15625 C 16.585938 -4.988281 17.0625 -6.015625 17.375 -7.234375 C 17.695312 -8.453125 17.859375 -9.851562 17.859375 -11.4375 C 17.859375 -14.601562 17.226562 -17.023438 15.96875 -18.703125 C 14.707031 -20.378906 12.8125 -21.21875 10.28125 -21.21875 L 7.46875 -21.21875 L 7.46875 -1.625 Z M 10.25 -1.625 "/></g></g></g><g clip-path="url(#9feb287b27)"><path fill="#ffc425" d="M 406.960938 34.453125 L 497.558594 34.453125 L 497.558594 125.046875 L 406.960938 125.046875 Z M 406.960938 34.453125 " fill-opacity="1" fill-rule="nonzero"/></g><g fill="#ffffff" fill-opacity="1"><g transform="translate(442.297009, 89.865837)"><g><path d="M 1.21875 0 L 1.21875 -1.34375 L 1.625 -1.34375 C 1.988281 -1.34375 2.328125 -1.367188 2.640625 -1.421875 C 2.960938 -1.472656 3.242188 -1.578125 3.484375 -1.734375 C 3.722656 -1.898438 3.910156 -2.132812 4.046875 -2.4375 C 4.179688 -2.738281 4.25 -3.140625 4.25 -3.640625 L 4.25 -19.171875 C 4.25 -19.671875 4.179688 -20.070312 4.046875 -20.375 C 3.910156 -20.675781 3.722656 -20.90625 3.484375 -21.0625 C 3.242188 -21.226562 2.960938 -21.335938 2.640625 -21.390625 C 2.328125 -21.441406 1.988281 -21.46875 1.625 -21.46875 L 1.21875 -21.46875 L 1.21875 -22.8125 L 10.515625 -22.8125 L 10.515625 -21.46875 L 10.09375 -21.46875 C 9.738281 -21.46875 9.398438 -21.441406 9.078125 -21.390625 C 8.765625 -21.347656 8.488281 -21.25 8.25 -21.09375 C 8.007812 -20.9375 7.816406 -20.710938 7.671875 -20.421875 C 7.535156 -20.140625 7.46875 -19.765625 7.46875 -19.296875 L 7.46875 -1.59375 L 13.78125 -1.59375 C 14.257812 -1.59375 14.664062 -1.675781 15 -1.84375 C 15.34375 -2.019531 15.617188 -2.242188 15.828125 -2.515625 C 16.046875 -2.796875 16.210938 -3.109375 16.328125 -3.453125 C 16.453125 -3.796875 16.535156 -4.140625 16.578125 -4.484375 L 16.890625 -6.859375 L 18.5625 -6.859375 L 18.34375 0 Z M 1.21875 0 "/></g></g></g><g clip-path="url(#78da15e662)"><path fill="#00bf63" d="M 508.46875 34.453125 L 599.0625 34.453125 L 599.0625 125.046875 L 508.46875 125.046875 Z M 508.46875 34.453125 " fill-opacity="1" fill-rule="nonzero"/></g><g fill="#ffffff" fill-opacity="1"><g transform="translate(543.803259, 89.865837)"><g><path d="M 7.46875 -1.59375 L 13.640625 -1.59375 C 14.148438 -1.59375 14.582031 -1.660156 14.9375 -1.796875 C 15.300781 -1.941406 15.597656 -2.132812 15.828125 -2.375 C 16.066406 -2.613281 16.253906 -2.890625 16.390625 -3.203125 C 16.523438 -3.523438 16.617188 -3.863281 16.671875 -4.21875 L 16.890625 -5.578125 L 18.5625 -5.578125 L 18.34375 0 L 1.21875 0 L 1.21875 -1.34375 L 1.625 -1.34375 C 1.976562 -1.34375 2.3125 -1.363281 2.625 -1.40625 C 2.945312 -1.457031 3.226562 -1.554688 3.46875 -1.703125 C 3.707031 -1.847656 3.894531 -2.0625 4.03125 -2.34375 C 4.175781 -2.632812 4.25 -3.015625 4.25 -3.484375 L 4.25 -19.171875 C 4.25 -19.671875 4.179688 -20.070312 4.046875 -20.375 C 3.910156 -20.675781 3.722656 -20.90625 3.484375 -21.0625 C 3.242188 -21.226562 2.960938 -21.335938 2.640625 -21.390625 C 2.328125 -21.441406 1.988281 -21.46875 1.625 -21.46875 L 1.21875 -21.46875 L 1.21875 -22.8125 L 17.3125 -22.8125 L 17.46875 -17.21875 L 15.828125 -17.21875 L 15.671875 -18.59375 C 15.628906 -18.945312 15.546875 -19.28125 15.421875 -19.59375 C 15.304688 -19.914062 15.132812 -20.195312 14.90625 -20.4375 C 14.6875 -20.675781 14.40625 -20.863281 14.0625 -21 C 13.726562 -21.144531 13.320312 -21.21875 12.84375 -21.21875 L 7.46875 -21.21875 L 7.46875 -12.71875 L 15.1875 -12.71875 L 15.1875 -11.15625 L 7.46875 -11.15625 Z M 7.46875 -1.59375 "/></g></g></g></svg>