<svg xmlns="http://www.w3.org/2000/svg" xmlns:xlink="http://www.w3.org/1999/xlink" width="400" zoomAndPan="magnify" viewBox="0 0 300 149.999998" height="200" preserveAspectRatio="xMidYMid meet" version="1.0"><defs><g/><clipPath id="43d6b1f522"><path d="M 10.535156 53.875 L 52.785156 53.875 L 52.785156 96.125 L 10.535156 96.125 Z M 10.535156 53.875 " clip-rule="nonzero"/></clipPath><clipPath id="53ae7a81ea"><path d="M 57.71875 53.875 L 99.96875 53.875 L 99.96875 96.125 L 57.71875 96.125 Z M 57.71875 53.875 " clip-rule="nonzero"/></clipPath><clipPath id="62fa7f20d8"><path d="M 105.050781 53.875 L 147.300781 53.875 L 147.300781 96.125 L 105.050781 96.125 Z M 105.050781 53.875 " clip-rule="nonzero"/></clipPath><clipPath id="b9d488adf9"><path d="M 152.382812 53.875 L 194.632812 53.875 L 194.632812 96.125 L 152.382812 96.125 Z M 152.382812 53.875 " clip-rule="nonzero"/></clipPath><clipPath id="a2ebed492e"><path d="M 199.882812 53.875 L 242.132812 53.875 L 242.132812 96.125 L 199.882812 96.125 Z M 199.882812 53.875 " clip-rule="nonzero"/></clipPath><clipPath id="ffda8f4c6e"><path d="M 247.214844 53.875 L 289.464844 53.875 L 289.464844 96.125 L 247.214844 96.125 Z M 247.214844 53.875 " clip-rule="nonzero"/></clipPath></defs><g clip-path="url(#43d6b1f522)"><path fill="#00bf63" d="M 10.535156 53.875 L 52.785156 53.875 L 52.785156 96.125 L 10.535156 96.125 Z M 10.535156 53.875 " fill-opacity="1" fill-rule="nonzero"/></g><g fill="#ffffff" fill-opacity="1"><g transform="translate(23.20462, 79.376167)"><g><path d="M 9.296875 -11.40625 L 11.3125 -4.421875 C 11.46875 -3.890625 11.601562 -3.375 11.71875 -2.875 C 11.84375 -2.382812 11.941406 -1.953125 12.015625 -1.578125 C 12.085938 -1.972656 12.175781 -2.382812 12.28125 -2.8125 C 12.382812 -3.238281 12.507812 -3.710938 12.65625 -4.234375 L 14.078125 -9.21875 C 14.085938 -9.28125 14.101562 -9.347656 14.125 -9.421875 C 14.144531 -9.503906 14.160156 -9.582031 14.171875 -9.65625 C 14.191406 -9.738281 14.207031 -9.8125 14.21875 -9.875 C 14.238281 -9.945312 14.25 -10.007812 14.25 -10.0625 C 14.25 -10.332031 14.160156 -10.53125 13.984375 -10.65625 C 13.804688 -10.78125 13.539062 -10.84375 13.1875 -10.84375 L 12.8125 -10.84375 L 12.8125 -11.515625 L 16.75 -11.515625 L 16.75 -10.84375 L 16.453125 -10.84375 C 16.296875 -10.84375 16.15625 -10.828125 16.03125 -10.796875 C 15.914062 -10.765625 15.8125 -10.703125 15.71875 -10.609375 C 15.625 -10.523438 15.535156 -10.398438 15.453125 -10.234375 C 15.378906 -10.078125 15.300781 -9.863281 15.21875 -9.59375 L 12.484375 0 L 11.046875 0 L 8.40625 -9.046875 L 5.9375 0 L 4.453125 0 L 1.5 -10 C 1.445312 -10.164062 1.382812 -10.300781 1.3125 -10.40625 C 1.25 -10.519531 1.171875 -10.609375 1.078125 -10.671875 C 0.992188 -10.734375 0.890625 -10.773438 0.765625 -10.796875 C 0.648438 -10.828125 0.515625 -10.84375 0.359375 -10.84375 L 0.140625 -10.84375 L 0.140625 -11.515625 L 4.59375 -11.515625 L 4.59375 -10.84375 L 4.21875 -10.84375 C 3.894531 -10.84375 3.648438 -10.78125 3.484375 -10.65625 C 3.328125 -10.53125 3.25 -10.335938 3.25 -10.078125 C 3.25 -9.984375 3.257812 -9.890625 3.28125 -9.796875 C 3.3125 -9.703125 3.34375 -9.59375 3.375 -9.46875 L 4.859375 -4.3125 C 4.992188 -3.820312 5.117188 -3.34375 5.234375 -2.875 C 5.359375 -2.40625 5.46875 -1.972656 5.5625 -1.578125 C 5.632812 -2.003906 5.722656 -2.460938 5.828125 -2.953125 C 5.941406 -3.453125 6.066406 -3.960938 6.203125 -4.484375 L 8.140625 -11.40625 Z M 9.296875 -11.40625 "/></g></g></g><g clip-path="url(#53ae7a81ea)"><path fill="#ffc425" d="M 57.71875 53.875 L 99.96875 53.875 L 99.96875 96.125 L 57.71875 96.125 Z M 57.71875 53.875 " fill-opacity="1" fill-rule="nonzero"/></g><g fill="#ffffff" fill-opacity="1"><g transform="translate(72.849224, 79.376167)"><g><path d="M 11.0625 -5.78125 C 11.0625 -4.882812 10.945312 -4.070312 10.71875 -3.34375 C 10.5 -2.613281 10.175781 -1.988281 9.75 -1.46875 C 9.320312 -0.945312 8.789062 -0.546875 8.15625 -0.265625 C 7.53125 0.015625 6.804688 0.15625 5.984375 0.15625 C 5.128906 0.15625 4.382812 0.015625 3.75 -0.265625 C 3.113281 -0.546875 2.582031 -0.945312 2.15625 -1.46875 C 1.738281 -1.988281 1.425781 -2.613281 1.21875 -3.34375 C 1.007812 -4.082031 0.90625 -4.898438 0.90625 -5.796875 C 0.90625 -6.679688 1.007812 -7.488281 1.21875 -8.21875 C 1.425781 -8.945312 1.738281 -9.566406 2.15625 -10.078125 C 2.582031 -10.597656 3.113281 -11 3.75 -11.28125 C 4.394531 -11.5625 5.144531 -11.703125 6 -11.703125 C 6.820312 -11.703125 7.546875 -11.5625 8.171875 -11.28125 C 8.796875 -11 9.320312 -10.597656 9.75 -10.078125 C 10.175781 -9.566406 10.5 -8.945312 10.71875 -8.21875 C 10.945312 -7.488281 11.0625 -6.675781 11.0625 -5.78125 Z M 2.703125 -5.78125 C 2.703125 -4.976562 2.757812 -4.265625 2.875 -3.640625 C 2.988281 -3.015625 3.175781 -2.484375 3.4375 -2.046875 C 3.707031 -1.609375 4.050781 -1.273438 4.46875 -1.046875 C 4.882812 -0.816406 5.390625 -0.703125 5.984375 -0.703125 C 6.585938 -0.703125 7.097656 -0.816406 7.515625 -1.046875 C 7.929688 -1.273438 8.269531 -1.609375 8.53125 -2.046875 C 8.789062 -2.484375 8.976562 -3.015625 9.09375 -3.640625 C 9.207031 -4.265625 9.265625 -4.976562 9.265625 -5.78125 C 9.265625 -6.570312 9.207031 -7.28125 9.09375 -7.90625 C 8.976562 -8.539062 8.789062 -9.070312 8.53125 -9.5 C 8.269531 -9.9375 7.929688 -10.265625 7.515625 -10.484375 C 7.109375 -10.710938 6.601562 -10.828125 6 -10.828125 C 5.40625 -10.828125 4.894531 -10.710938 4.46875 -10.484375 C 4.050781 -10.265625 3.707031 -9.9375 3.4375 -9.5 C 3.175781 -9.070312 2.988281 -8.539062 2.875 -7.90625 C 2.757812 -7.28125 2.703125 -6.570312 2.703125 -5.78125 Z M 2.703125 -5.78125 "/></g></g></g><g clip-path="url(#62fa7f20d8)"><path fill="#00bf63" d="M 105.050781 53.875 L 147.300781 53.875 L 147.300781 96.125 L 105.050781 96.125 Z M 105.050781 53.875 " fill-opacity="1" fill-rule="nonzero"/></g><g fill="#ffffff" fill-opacity="1"><g transform="translate(120.884152, 79.376167)"><g><path d="M 8.9375 -1.96875 C 9.21875 -1.539062 9.484375 -1.21875 9.734375 -1 C 9.992188 -0.78125 10.296875 -0.671875 10.640625 -0.671875 L 10.6875 -0.671875 L 10.6875 0 L 10.453125 0 C 9.953125 0 9.539062 -0.015625 9.21875 -0.046875 C 8.894531 -0.0859375 8.617188 -0.160156 8.390625 -0.265625 C 8.160156 -0.367188 7.96875 -0.515625 7.8125 -0.703125 C 7.65625 -0.898438 7.484375 -1.148438 7.296875 -1.453125 L 5.109375 -5.078125 L 3.78125 -5.078125 L 3.78125 -1.75 C 3.78125 -1.519531 3.8125 -1.332031 3.875 -1.1875 C 3.945312 -1.039062 4.039062 -0.929688 4.15625 -0.859375 C 4.28125 -0.785156 4.421875 -0.734375 4.578125 -0.703125 C 4.742188 -0.679688 4.914062 -0.671875 5.09375 -0.671875 L 5.3125 -0.671875 L 5.3125 0 L 0.609375 0 L 0.609375 -0.671875 L 0.8125 -0.671875 C 1 -0.671875 1.171875 -0.679688 1.328125 -0.703125 C 1.484375 -0.734375 1.625 -0.785156 1.75 -0.859375 C 1.875 -0.929688 1.96875 -1.039062 2.03125 -1.1875 C 2.101562 -1.332031 2.140625 -1.519531 2.140625 -1.75 L 2.140625 -9.75 C 2.140625 -9.988281 2.101562 -10.175781 2.03125 -10.3125 C 1.96875 -10.457031 1.875 -10.570312 1.75 -10.65625 C 1.625 -10.738281 1.484375 -10.789062 1.328125 -10.8125 C 1.171875 -10.832031 1 -10.84375 0.8125 -10.84375 L 0.609375 -10.84375 L 0.609375 -11.515625 L 4.953125 -11.515625 C 6.347656 -11.515625 7.390625 -11.253906 8.078125 -10.734375 C 8.765625 -10.222656 9.109375 -9.445312 9.109375 -8.40625 C 9.109375 -7.976562 9.035156 -7.601562 8.890625 -7.28125 C 8.753906 -6.957031 8.570312 -6.675781 8.34375 -6.4375 C 8.113281 -6.195312 7.859375 -6 7.578125 -5.84375 C 7.296875 -5.6875 7.015625 -5.5625 6.734375 -5.46875 Z M 3.78125 -5.84375 L 4.90625 -5.84375 C 5.382812 -5.84375 5.78125 -5.894531 6.09375 -6 C 6.40625 -6.101562 6.65625 -6.257812 6.84375 -6.46875 C 7.03125 -6.675781 7.164062 -6.9375 7.25 -7.25 C 7.332031 -7.570312 7.375 -7.941406 7.375 -8.359375 C 7.375 -8.796875 7.328125 -9.164062 7.234375 -9.46875 C 7.148438 -9.769531 7.007812 -10.015625 6.8125 -10.203125 C 6.613281 -10.390625 6.351562 -10.523438 6.03125 -10.609375 C 5.71875 -10.703125 5.332031 -10.75 4.875 -10.75 L 3.78125 -10.75 Z M 3.78125 -5.84375 "/></g></g></g><g clip-path="url(#b9d488adf9)"><path fill="#00bf63" d="M 152.382812 53.875 L 194.632812 53.875 L 194.632812 96.125 L 152.382812 96.125 Z M 152.382812 53.875 " fill-opacity="1" fill-rule="nonzero"/></g><g fill="#ffffff" fill-opacity="1"><g transform="translate(167.630016, 79.376167)"><g><path d="M 10.8125 -5.78125 C 10.8125 -4.894531 10.703125 -4.09375 10.484375 -3.375 C 10.265625 -2.664062 9.9375 -2.0625 9.5 -1.5625 C 9.0625 -1.0625 8.515625 -0.675781 7.859375 -0.40625 C 7.203125 -0.132812 6.4375 0 5.5625 0 L 0.609375 0 L 0.609375 -0.671875 L 0.8125 -0.671875 C 1 -0.671875 1.171875 -0.679688 1.328125 -0.703125 C 1.492188 -0.734375 1.632812 -0.789062 1.75 -0.875 C 1.875 -0.957031 1.96875 -1.070312 2.03125 -1.21875 C 2.101562 -1.375 2.140625 -1.582031 2.140625 -1.84375 L 2.140625 -9.75 C 2.140625 -9.988281 2.101562 -10.175781 2.03125 -10.3125 C 1.96875 -10.457031 1.875 -10.570312 1.75 -10.65625 C 1.625 -10.738281 1.484375 -10.789062 1.328125 -10.8125 C 1.171875 -10.832031 1 -10.84375 0.8125 -10.84375 L 0.609375 -10.84375 L 0.609375 -11.515625 L 5.5625 -11.515625 C 6.382812 -11.515625 7.117188 -11.382812 7.765625 -11.125 C 8.421875 -10.875 8.972656 -10.503906 9.421875 -10.015625 C 9.878906 -9.535156 10.222656 -8.9375 10.453125 -8.21875 C 10.691406 -7.5 10.8125 -6.6875 10.8125 -5.78125 Z M 5.171875 -0.8125 C 5.816406 -0.8125 6.378906 -0.921875 6.859375 -1.140625 C 7.335938 -1.359375 7.738281 -1.675781 8.0625 -2.09375 C 8.382812 -2.519531 8.625 -3.039062 8.78125 -3.65625 C 8.945312 -4.269531 9.03125 -4.976562 9.03125 -5.78125 C 9.03125 -7.382812 8.707031 -8.609375 8.0625 -9.453125 C 7.425781 -10.296875 6.46875 -10.71875 5.1875 -10.71875 L 3.78125 -10.71875 L 3.78125 -0.8125 Z M 5.171875 -0.8125 "/></g></g></g><g clip-path="url(#a2ebed492e)"><path fill="#ffc425" d="M 199.882812 53.875 L 242.132812 53.875 L 242.132812 96.125 L 199.882812 96.125 Z M 199.882812 53.875 " fill-opacity="1" fill-rule="nonzero"/></g><g fill="#ffffff" fill-opacity="1"><g transform="translate(215.973711, 79.376167)"><g><path d="M 0.609375 0 L 0.609375 -0.671875 L 0.8125 -0.671875 C 1 -0.671875 1.171875 -0.679688 1.328125 -0.703125 C 1.492188 -0.734375 1.632812 -0.789062 1.75 -0.875 C 1.875 -0.957031 1.96875 -1.070312 2.03125 -1.21875 C 2.101562 -1.375 2.140625 -1.582031 2.140625 -1.84375 L 2.140625 -9.6875 C 2.140625 -9.9375 2.101562 -10.132812 2.03125 -10.28125 C 1.96875 -10.4375 1.875 -10.554688 1.75 -10.640625 C 1.632812 -10.722656 1.492188 -10.773438 1.328125 -10.796875 C 1.171875 -10.828125 1 -10.84375 0.8125 -10.84375 L 0.609375 -10.84375 L 0.609375 -11.515625 L 5.3125 -11.515625 L 5.3125 -10.84375 L 5.09375 -10.84375 C 4.914062 -10.84375 4.742188 -10.832031 4.578125 -10.8125 C 4.421875 -10.789062 4.28125 -10.738281 4.15625 -10.65625 C 4.039062 -10.570312 3.945312 -10.457031 3.875 -10.3125 C 3.8125 -10.175781 3.78125 -9.988281 3.78125 -9.75 L 3.78125 -0.796875 L 6.953125 -0.796875 C 7.203125 -0.796875 7.410156 -0.835938 7.578125 -0.921875 C 7.742188 -1.015625 7.882812 -1.128906 8 -1.265625 C 8.113281 -1.410156 8.195312 -1.566406 8.25 -1.734375 C 8.3125 -1.910156 8.351562 -2.085938 8.375 -2.265625 L 8.53125 -3.46875 L 9.375 -3.46875 L 9.265625 0 Z M 0.609375 0 "/></g></g></g><g clip-path="url(#ffda8f4c6e)"><path fill="#00bf63" d="M 247.214844 53.875 L 289.464844 53.875 L 289.464844 96.125 L 247.214844 96.125 Z M 247.214844 53.875 " fill-opacity="1" fill-rule="nonzero"/></g><g fill="#ffffff" fill-opacity="1"><g transform="translate(263.305505, 79.376167)"><g><path d="M 3.78125 -0.796875 L 6.890625 -0.796875 C 7.148438 -0.796875 7.367188 -0.832031 7.546875 -0.90625 C 7.722656 -0.976562 7.875 -1.070312 8 -1.1875 C 8.125 -1.3125 8.21875 -1.453125 8.28125 -1.609375 C 8.351562 -1.773438 8.398438 -1.945312 8.421875 -2.125 L 8.53125 -2.828125 L 9.375 -2.828125 L 9.265625 0 L 0.609375 0 L 0.609375 -0.671875 L 0.8125 -0.671875 C 1 -0.671875 1.171875 -0.679688 1.328125 -0.703125 C 1.484375 -0.734375 1.625 -0.785156 1.75 -0.859375 C 1.875 -0.929688 1.96875 -1.039062 2.03125 -1.1875 C 2.101562 -1.332031 2.140625 -1.519531 2.140625 -1.75 L 2.140625 -9.6875 C 2.140625 -9.9375 2.101562 -10.132812 2.03125 -10.28125 C 1.96875 -10.4375 1.875 -10.554688 1.75 -10.640625 C 1.632812 -10.722656 1.492188 -10.773438 1.328125 -10.796875 C 1.171875 -10.828125 1 -10.84375 0.8125 -10.84375 L 0.609375 -10.84375 L 0.609375 -11.515625 L 8.75 -11.515625 L 8.828125 -8.703125 L 7.984375 -8.703125 L 7.90625 -9.390625 C 7.882812 -9.566406 7.84375 -9.734375 7.78125 -9.890625 C 7.726562 -10.054688 7.644531 -10.195312 7.53125 -10.3125 C 7.414062 -10.4375 7.269531 -10.535156 7.09375 -10.609375 C 6.925781 -10.679688 6.722656 -10.71875 6.484375 -10.71875 L 3.78125 -10.71875 L 3.78125 -6.421875 L 7.671875 -6.421875 L 7.671875 -5.640625 L 3.78125 -5.640625 Z M 3.78125 -0.796875 "/></g></g></g></svg>