<svg xmlns="http://www.w3.org/2000/svg" xmlns:xlink="http://www.w3.org/1999/xlink" width="400" zoomAndPan="magnify" viewBox="0 0 300 149.999998" height="200" preserveAspectRatio="xMidYMid meet" version="1.0"><defs><g/><clipPath id="55a80fe85d"><path d="M 26.996094 52.5 L 71.996094 52.5 L 71.996094 97.5 L 26.996094 97.5 Z M 26.996094 52.5 " clip-rule="nonzero"/></clipPath><clipPath id="57c1ae6ce2"><path d="M 77.253906 52.5 L 122.253906 52.5 L 122.253906 97.5 L 77.253906 97.5 Z M 77.253906 52.5 " clip-rule="nonzero"/></clipPath><clipPath id="b170b42925"><path d="M 127.503906 52.5 L 172.503906 52.5 L 172.503906 97.5 L 127.503906 97.5 Z M 127.503906 52.5 " clip-rule="nonzero"/></clipPath><clipPath id="4031cbc1dc"><path d="M 177.753906 52.5 L 222.753906 52.5 L 222.753906 97.5 L 177.753906 97.5 Z M 177.753906 52.5 " clip-rule="nonzero"/></clipPath><clipPath id="387a8274df"><path d="M 228.003906 52.5 L 273.003906 52.5 L 273.003906 97.5 L 228.003906 97.5 Z M 228.003906 52.5 " clip-rule="nonzero"/></clipPath></defs><g clip-path="url(#55a80fe85d)"><path fill="#00bf63" d="M 26.996094 52.5 L 71.996094 52.5 L 71.996094 97.5 L 26.996094 97.5 Z M 26.996094 52.5 " fill-opacity="1" fill-rule="nonzero"/></g><g fill="#ffffff" fill-opacity="1"><g transform="translate(36.406368, 83.249997)"><g><path d="M 14.40625 -17.671875 L 17.53125 -6.84375 C 17.769531 -6.019531 17.976562 -5.226562 18.15625 -4.46875 C 18.34375 -3.707031 18.492188 -3.035156 18.609375 -2.453125 C 18.722656 -3.054688 18.859375 -3.6875 19.015625 -4.34375 C 19.179688 -5.007812 19.378906 -5.75 19.609375 -6.5625 L 21.796875 -14.265625 C 21.828125 -14.367188 21.859375 -14.476562 21.890625 -14.59375 C 21.921875 -14.71875 21.945312 -14.84375 21.96875 -14.96875 C 22 -15.09375 22.023438 -15.207031 22.046875 -15.3125 C 22.066406 -15.414062 22.078125 -15.503906 22.078125 -15.578125 C 22.078125 -16.003906 21.9375 -16.3125 21.65625 -16.5 C 21.382812 -16.695312 20.972656 -16.796875 20.421875 -16.796875 L 19.84375 -16.796875 L 19.84375 -17.84375 L 25.953125 -17.84375 L 25.953125 -16.796875 L 25.46875 -16.796875 C 25.226562 -16.796875 25.015625 -16.769531 24.828125 -16.71875 C 24.648438 -16.675781 24.488281 -16.582031 24.34375 -16.4375 C 24.195312 -16.300781 24.0625 -16.109375 23.9375 -15.859375 C 23.8125 -15.609375 23.691406 -15.273438 23.578125 -14.859375 L 19.34375 0 L 17.109375 0 L 13.03125 -14 L 9.203125 0 L 6.890625 0 L 2.3125 -15.484375 C 2.238281 -15.742188 2.148438 -15.957031 2.046875 -16.125 C 1.941406 -16.289062 1.820312 -16.421875 1.6875 -16.515625 C 1.550781 -16.617188 1.390625 -16.691406 1.203125 -16.734375 C 1.015625 -16.773438 0.796875 -16.796875 0.546875 -16.796875 L 0.21875 -16.796875 L 0.21875 -17.84375 L 7.109375 -17.84375 L 7.109375 -16.796875 L 6.53125 -16.796875 C 6.03125 -16.796875 5.65625 -16.695312 5.40625 -16.5 C 5.15625 -16.3125 5.03125 -16.007812 5.03125 -15.59375 C 5.03125 -15.457031 5.050781 -15.316406 5.09375 -15.171875 C 5.132812 -15.023438 5.175781 -14.859375 5.21875 -14.671875 L 7.515625 -6.671875 C 7.734375 -5.921875 7.9375 -5.179688 8.125 -4.453125 C 8.3125 -3.722656 8.472656 -3.054688 8.609375 -2.453125 C 8.734375 -3.109375 8.878906 -3.816406 9.046875 -4.578125 C 9.210938 -5.347656 9.40625 -6.140625 9.625 -6.953125 L 12.59375 -17.671875 Z M 14.40625 -17.671875 "/></g></g></g><g clip-path="url(#57c1ae6ce2)"><path fill="#ffc425" d="M 77.253906 52.5 L 122.253906 52.5 L 122.253906 97.5 L 77.253906 97.5 Z M 77.253906 52.5 " fill-opacity="1" fill-rule="nonzero"/></g><g fill="#ffffff" fill-opacity="1"><g transform="translate(95.160034, 83.249997)"><g><path d="M 0.953125 0 L 0.953125 -1.046875 L 1.265625 -1.046875 C 1.554688 -1.046875 1.820312 -1.066406 2.0625 -1.109375 C 2.3125 -1.148438 2.53125 -1.234375 2.71875 -1.359375 C 2.90625 -1.484375 3.050781 -1.664062 3.15625 -1.90625 C 3.269531 -2.144531 3.328125 -2.457031 3.328125 -2.84375 L 3.328125 -15 C 3.328125 -15.394531 3.269531 -15.707031 3.15625 -15.9375 C 3.050781 -16.175781 2.90625 -16.359375 2.71875 -16.484375 C 2.53125 -16.609375 2.3125 -16.691406 2.0625 -16.734375 C 1.820312 -16.773438 1.554688 -16.796875 1.265625 -16.796875 L 0.953125 -16.796875 L 0.953125 -17.84375 L 8.234375 -17.84375 L 8.234375 -16.796875 L 7.890625 -16.796875 C 7.617188 -16.796875 7.351562 -16.773438 7.09375 -16.734375 C 6.84375 -16.691406 6.625 -16.609375 6.4375 -16.484375 C 6.257812 -16.359375 6.113281 -16.175781 6 -15.9375 C 5.894531 -15.707031 5.84375 -15.394531 5.84375 -15 L 5.84375 -2.84375 C 5.84375 -2.457031 5.894531 -2.144531 6 -1.90625 C 6.113281 -1.664062 6.257812 -1.484375 6.4375 -1.359375 C 6.625 -1.234375 6.84375 -1.148438 7.09375 -1.109375 C 7.351562 -1.066406 7.617188 -1.046875 7.890625 -1.046875 L 8.234375 -1.046875 L 8.234375 0 Z M 0.953125 0 "/></g></g></g><g clip-path="url(#b170b42925)"><path fill="#878686" d="M 127.503906 52.5 L 172.503906 52.5 L 172.503906 97.5 L 127.503906 97.5 Z M 127.503906 52.5 " fill-opacity="1" fill-rule="nonzero"/></g><g fill="#ffffff" fill-opacity="1"><g transform="translate(142.21082, 83.249997)"><g><path d="M 0.953125 0 L 0.953125 -1.046875 L 1.265625 -1.046875 C 1.554688 -1.046875 1.820312 -1.066406 2.0625 -1.109375 C 2.3125 -1.148438 2.53125 -1.234375 2.71875 -1.359375 C 2.90625 -1.484375 3.050781 -1.664062 3.15625 -1.90625 C 3.269531 -2.144531 3.328125 -2.457031 3.328125 -2.84375 L 3.328125 -15 C 3.328125 -15.394531 3.269531 -15.707031 3.15625 -15.9375 C 3.050781 -16.175781 2.90625 -16.359375 2.71875 -16.484375 C 2.53125 -16.609375 2.3125 -16.691406 2.0625 -16.734375 C 1.820312 -16.773438 1.554688 -16.796875 1.265625 -16.796875 L 0.953125 -16.796875 L 0.953125 -17.84375 L 8.234375 -17.84375 L 8.234375 -16.796875 L 7.890625 -16.796875 C 7.617188 -16.796875 7.359375 -16.773438 7.109375 -16.734375 C 6.859375 -16.703125 6.640625 -16.625 6.453125 -16.5 C 6.265625 -16.382812 6.113281 -16.210938 6 -15.984375 C 5.894531 -15.765625 5.84375 -15.46875 5.84375 -15.09375 L 5.84375 -1.25 L 10.78125 -1.25 C 11.15625 -1.25 11.472656 -1.3125 11.734375 -1.4375 C 12.003906 -1.570312 12.222656 -1.75 12.390625 -1.96875 C 12.554688 -2.1875 12.6875 -2.425781 12.78125 -2.6875 C 12.875 -2.957031 12.9375 -3.226562 12.96875 -3.5 L 13.21875 -5.375 L 14.53125 -5.375 L 14.359375 0 Z M 0.953125 0 "/></g></g></g><g clip-path="url(#4031cbc1dc)"><path fill="#878686" d="M 177.753906 52.5 L 222.753906 52.5 L 222.753906 97.5 L 177.753906 97.5 Z M 177.753906 52.5 " fill-opacity="1" fill-rule="nonzero"/></g><g fill="#ffffff" fill-opacity="1"><g transform="translate(192.589723, 83.249997)"><g><path d="M 8.90625 -2.84375 C 8.90625 -2.457031 8.957031 -2.144531 9.0625 -1.90625 C 9.175781 -1.664062 9.320312 -1.484375 9.5 -1.359375 C 9.6875 -1.234375 9.90625 -1.148438 10.15625 -1.109375 C 10.40625 -1.066406 10.671875 -1.046875 10.953125 -1.046875 L 11.53125 -1.046875 L 11.53125 0 L 3.75 0 L 3.75 -1.046875 L 4.328125 -1.046875 C 4.597656 -1.046875 4.859375 -1.0625 5.109375 -1.09375 C 5.359375 -1.132812 5.578125 -1.210938 5.765625 -1.328125 C 5.953125 -1.441406 6.097656 -1.609375 6.203125 -1.828125 C 6.316406 -2.054688 6.375 -2.351562 6.375 -2.71875 L 6.375 -16.609375 L 3.984375 -16.609375 C 3.617188 -16.609375 3.3125 -16.550781 3.0625 -16.4375 C 2.8125 -16.320312 2.601562 -16.171875 2.4375 -15.984375 C 2.28125 -15.796875 2.164062 -15.578125 2.09375 -15.328125 C 2.019531 -15.085938 1.960938 -14.828125 1.921875 -14.546875 L 1.796875 -13.484375 L 0.5 -13.484375 L 0.625 -17.84375 L 14.703125 -17.84375 L 14.8125 -13.484375 L 13.53125 -13.484375 L 13.40625 -14.546875 C 13.375 -14.828125 13.316406 -15.085938 13.234375 -15.328125 C 13.148438 -15.578125 13.03125 -15.796875 12.875 -15.984375 C 12.71875 -16.171875 12.515625 -16.320312 12.265625 -16.4375 C 12.015625 -16.550781 11.703125 -16.609375 11.328125 -16.609375 L 8.90625 -16.609375 Z M 8.90625 -2.84375 "/></g></g></g><g clip-path="url(#387a8274df)"><path fill="#878686" d="M 228.003906 52.5 L 273.003906 52.5 L 273.003906 97.5 L 228.003906 97.5 Z M 228.003906 52.5 " fill-opacity="1" fill-rule="nonzero"/></g><g fill="#ffffff" fill-opacity="1"><g transform="translate(243.695175, 83.249997)"><g><path d="M 6.171875 0.25 C 5.359375 0.25 4.640625 0.164062 4.015625 0 C 3.398438 -0.175781 2.878906 -0.414062 2.453125 -0.71875 C 2.035156 -1.03125 1.722656 -1.398438 1.515625 -1.828125 C 1.304688 -2.265625 1.203125 -2.742188 1.203125 -3.265625 C 1.203125 -3.773438 1.359375 -4.179688 1.671875 -4.484375 C 1.984375 -4.796875 2.425781 -4.953125 3 -4.953125 C 3.03125 -4.429688 3.109375 -3.929688 3.234375 -3.453125 C 3.367188 -2.972656 3.570312 -2.550781 3.84375 -2.1875 C 4.113281 -1.820312 4.457031 -1.53125 4.875 -1.3125 C 5.289062 -1.09375 5.789062 -0.984375 6.375 -0.984375 C 7.5 -0.984375 8.375 -1.25 9 -1.78125 C 9.632812 -2.320312 9.953125 -3.101562 9.953125 -4.125 C 9.953125 -4.582031 9.882812 -4.984375 9.75 -5.328125 C 9.625 -5.679688 9.410156 -6.003906 9.109375 -6.296875 C 8.804688 -6.597656 8.40625 -6.882812 7.90625 -7.15625 C 7.414062 -7.425781 6.804688 -7.710938 6.078125 -8.015625 C 5.304688 -8.335938 4.628906 -8.675781 4.046875 -9.03125 C 3.472656 -9.394531 2.992188 -9.796875 2.609375 -10.234375 C 2.222656 -10.679688 1.9375 -11.175781 1.75 -11.71875 C 1.570312 -12.269531 1.484375 -12.890625 1.484375 -13.578125 C 1.484375 -14.296875 1.617188 -14.929688 1.890625 -15.484375 C 2.160156 -16.046875 2.539062 -16.519531 3.03125 -16.90625 C 3.519531 -17.300781 4.097656 -17.597656 4.765625 -17.796875 C 5.429688 -18.003906 6.160156 -18.109375 6.953125 -18.109375 C 7.691406 -18.109375 8.347656 -18.03125 8.921875 -17.875 C 9.503906 -17.71875 9.992188 -17.507812 10.390625 -17.25 C 10.796875 -16.988281 11.101562 -16.6875 11.3125 -16.34375 C 11.519531 -16.007812 11.625 -15.660156 11.625 -15.296875 C 11.625 -14.753906 11.445312 -14.347656 11.09375 -14.078125 C 10.738281 -13.804688 10.257812 -13.671875 9.65625 -13.671875 C 9.65625 -14.066406 9.609375 -14.453125 9.515625 -14.828125 C 9.421875 -15.203125 9.265625 -15.535156 9.046875 -15.828125 C 8.828125 -16.128906 8.535156 -16.375 8.171875 -16.5625 C 7.816406 -16.75 7.375 -16.84375 6.84375 -16.84375 C 6.363281 -16.84375 5.9375 -16.773438 5.5625 -16.640625 C 5.1875 -16.503906 4.867188 -16.3125 4.609375 -16.0625 C 4.347656 -15.820312 4.144531 -15.523438 4 -15.171875 C 3.863281 -14.828125 3.796875 -14.4375 3.796875 -14 C 3.796875 -13.5 3.859375 -13.0625 3.984375 -12.6875 C 4.117188 -12.3125 4.335938 -11.96875 4.640625 -11.65625 C 4.953125 -11.351562 5.351562 -11.066406 5.84375 -10.796875 C 6.34375 -10.523438 6.953125 -10.242188 7.671875 -9.953125 C 8.410156 -9.648438 9.066406 -9.332031 9.640625 -9 C 10.210938 -8.664062 10.695312 -8.289062 11.09375 -7.875 C 11.488281 -7.46875 11.789062 -7.007812 12 -6.5 C 12.21875 -5.988281 12.328125 -5.410156 12.328125 -4.765625 C 12.328125 -3.984375 12.179688 -3.28125 11.890625 -2.65625 C 11.609375 -2.03125 11.195312 -1.5 10.65625 -1.0625 C 10.113281 -0.632812 9.460938 -0.304688 8.703125 -0.078125 C 7.953125 0.140625 7.109375 0.25 6.171875 0.25 Z M 6.171875 0.25 "/></g></g></g></svg>