<svg xmlns="http://www.w3.org/2000/svg" xmlns:xlink="http://www.w3.org/1999/xlink" width="512" zoomAndPan="magnify" viewBox="0 0 384 383.999986" height="512" preserveAspectRatio="xMidYMid meet" version="1.0"><defs><g/></defs><rect x="-38.4" width="460.8" fill="#ffffff" y="-38.399999" height="460.799983" fill-opacity="1"/><rect x="-38.4" width="460.8" fill="#00bf63" y="-38.399999" height="460.799983" fill-opacity="1"/><g fill="#ffffff" fill-opacity="1"><g transform="translate(26.315626, 301.499976)"><g><path d="M 182.375 -223.796875 L 221.9375 -86.703125 C 224.925781 -76.191406 227.578125 -66.117188 229.890625 -56.484375 C 232.210938 -46.859375 234.097656 -38.382812 235.546875 -31.0625 C 237.085938 -38.6875 238.863281 -46.695312 240.875 -55.09375 C 242.882812 -63.5 245.332031 -72.800781 248.21875 -83 L 276.03125 -180.671875 C 276.34375 -181.910156 276.703125 -183.300781 277.109375 -184.84375 C 277.523438 -186.394531 277.890625 -187.941406 278.203125 -189.484375 C 278.515625 -191.023438 278.796875 -192.46875 279.046875 -193.8125 C 279.304688 -195.15625 279.4375 -196.289062 279.4375 -197.21875 C 279.4375 -202.675781 277.707031 -206.613281 274.25 -209.03125 C 270.800781 -211.457031 265.578125 -212.671875 258.578125 -212.671875 L 251.3125 -212.671875 L 251.3125 -225.96875 L 328.59375 -225.96875 L 328.59375 -212.671875 L 322.5625 -212.671875 C 319.46875 -212.671875 316.757812 -212.359375 314.4375 -211.734375 C 312.125 -211.117188 310.039062 -209.9375 308.1875 -208.1875 C 306.332031 -206.4375 304.628906 -203.960938 303.078125 -200.765625 C 301.535156 -197.578125 299.992188 -193.351562 298.453125 -188.09375 L 244.96875 0 L 216.53125 0 L 164.90625 -177.28125 L 116.53125 0 L 87.328125 0 L 29.359375 -195.984375 C 28.328125 -199.273438 27.164062 -202.003906 25.875 -204.171875 C 24.59375 -206.335938 23.078125 -208.035156 21.328125 -209.265625 C 19.578125 -210.503906 17.515625 -211.378906 15.140625 -211.890625 C 12.773438 -212.410156 10.046875 -212.671875 6.953125 -212.671875 L 2.78125 -212.671875 L 2.78125 -225.96875 L 89.953125 -225.96875 L 89.953125 -212.671875 L 82.6875 -212.671875 C 76.300781 -212.671875 71.535156 -211.457031 68.390625 -209.03125 C 65.242188 -206.613281 63.671875 -202.773438 63.671875 -197.515625 C 63.671875 -195.765625 63.925781 -193.960938 64.4375 -192.109375 C 64.957031 -190.253906 65.53125 -188.144531 66.15625 -185.78125 L 95.203125 -84.546875 C 97.878906 -74.960938 100.398438 -65.554688 102.765625 -56.328125 C 105.140625 -47.109375 107.207031 -38.6875 108.96875 -31.0625 C 110.507812 -39.3125 112.335938 -48.300781 114.453125 -58.03125 C 116.566406 -67.769531 119.015625 -77.738281 121.796875 -87.9375 L 159.5 -223.796875 Z M 182.375 -223.796875 "/></g></g></g></svg>